<svg width="261" height="42" viewBox="0 0 261 42" fill="none" xmlns="http://www.w3.org/2000/svg">
<path d="M260.845 26.12C260.845 28.04 260.245 29.64 259.045 30.92C257.845 32.1733 256.165 33.12 254.005 33.76C251.872 34.3733 249.365 34.68 246.485 34.68C243.525 34.68 240.912 34.3333 238.645 33.64C236.405 32.92 234.632 31.92 233.325 30.64C232.045 29.36 231.365 27.8667 231.285 26.16H241.605C241.792 26.6667 242.112 27.0933 242.565 27.44C243.019 27.76 243.605 28.0133 244.325 28.2C245.072 28.36 245.979 28.44 247.045 28.44C248.325 28.44 249.299 28.32 249.965 28.08C250.632 27.8133 250.965 27.4533 250.965 27C250.965 26.5467 250.685 26.2267 250.125 26.04C249.565 25.8533 248.659 25.72 247.405 25.64L243.645 25.4C240.739 25.2133 238.419 24.84 236.685 24.28C234.979 23.6933 233.752 22.9067 233.005 21.92C232.259 20.9333 231.885 19.7467 231.885 18.36C231.885 16.52 232.459 15 233.605 13.8C234.779 12.6 236.405 11.7067 238.485 11.12C240.565 10.5333 242.992 10.24 245.765 10.24C248.485 10.24 250.899 10.5867 253.005 11.28C255.112 11.9467 256.805 12.8933 258.085 14.12C259.365 15.3467 260.112 16.7733 260.325 18.4H250.005C249.872 17.92 249.605 17.5067 249.205 17.16C248.805 16.8133 248.285 16.5467 247.645 16.36C247.005 16.1733 246.232 16.08 245.325 16.08C244.099 16.08 243.205 16.2267 242.645 16.52C242.085 16.7867 241.805 17.1467 241.805 17.6C241.805 18.0267 241.979 18.3333 242.325 18.52C242.672 18.68 243.352 18.7867 244.365 18.84L249.405 19.16C252.285 19.32 254.552 19.6933 256.205 20.28C257.885 20.84 259.072 21.6 259.765 22.56C260.485 23.52 260.845 24.7067 260.845 26.12Z" fill="#5269DB"/>
<path d="M218.699 33.96L217.539 25.84L218.699 22.48L217.539 19.16L218.699 10.96H229.259L227.659 22.44L229.259 33.96H218.699ZM220.819 22.48C220.552 24.9333 219.886 27.08 218.819 28.92C217.779 30.7333 216.406 32.1467 214.699 33.16C213.019 34.1733 211.086 34.68 208.899 34.68C206.659 34.68 204.686 34.1733 202.979 33.16C201.299 32.1467 199.979 30.72 199.019 28.88C198.086 27.04 197.619 24.9067 197.619 22.48C197.619 20.0267 198.086 17.88 199.019 16.04C199.979 14.2 201.299 12.7733 202.979 11.76C204.686 10.7467 206.659 10.24 208.899 10.24C211.086 10.24 213.019 10.7467 214.699 11.76C216.406 12.7467 217.792 14.16 218.859 16C219.926 17.8133 220.579 19.9733 220.819 22.48ZM207.859 22.48C207.859 23.36 208.032 24.1467 208.379 24.84C208.752 25.5067 209.259 26.04 209.899 26.44C210.566 26.84 211.326 27.04 212.179 27.04C213.059 27.04 213.912 26.84 214.739 26.44C215.566 26.04 216.286 25.5067 216.899 24.84C217.539 24.1467 217.979 23.36 218.219 22.48C217.979 21.6 217.539 20.8133 216.899 20.12C216.286 19.4267 215.566 18.88 214.739 18.48C213.912 18.08 213.059 17.88 212.179 17.88C211.326 17.88 210.566 18.08 209.899 18.48C209.259 18.88 208.752 19.4267 208.379 20.12C208.032 20.8133 207.859 21.6 207.859 22.48Z" fill="#5269DB"/>
<path d="M184.435 3.16H194.595V33.96H184.435V3.16Z" fill="#5269DB"/>
<path d="M157.364 18.36V14L161.884 11.72L166.324 4.67999H172.044V10.96H181.044V18.36H172.044V23.08C172.044 24.5467 172.324 25.5867 172.884 26.2C173.444 26.7867 174.591 27.08 176.324 27.08C177.391 27.08 178.337 27.0133 179.164 26.88C180.017 26.72 180.777 26.5333 181.444 26.32V33.68C180.537 33.9467 179.417 34.1733 178.084 34.36C176.777 34.5733 175.404 34.68 173.964 34.68C171.244 34.68 168.991 34.28 167.204 33.48C165.417 32.6533 164.084 31.4667 163.204 29.92C162.324 28.3733 161.884 26.5333 161.884 24.4V18.36H157.364Z" fill="#5269DB"/>
<path d="M145.262 33.96L144.102 25.84L145.262 22.48L144.102 19.16L145.262 10.96H155.822L154.222 22.44L155.822 33.96H145.262ZM147.382 22.48C147.115 24.9333 146.448 27.08 145.382 28.92C144.342 30.7333 142.968 32.1467 141.262 33.16C139.582 34.1733 137.648 34.68 135.462 34.68C133.222 34.68 131.248 34.1733 129.542 33.16C127.862 32.1467 126.542 30.72 125.582 28.88C124.648 27.04 124.182 24.9067 124.182 22.48C124.182 20.0267 124.648 17.88 125.582 16.04C126.542 14.2 127.862 12.7733 129.542 11.76C131.248 10.7467 133.222 10.24 135.462 10.24C137.648 10.24 139.582 10.7467 141.262 11.76C142.968 12.7467 144.355 14.16 145.422 16C146.488 17.8133 147.142 19.9733 147.382 22.48ZM134.422 22.48C134.422 23.36 134.595 24.1467 134.942 24.84C135.315 25.5067 135.822 26.04 136.462 26.44C137.128 26.84 137.888 27.04 138.742 27.04C139.622 27.04 140.475 26.84 141.302 26.44C142.128 26.04 142.848 25.5067 143.462 24.84C144.102 24.1467 144.542 23.36 144.782 22.48C144.542 21.6 144.102 20.8133 143.462 20.12C142.848 19.4267 142.128 18.88 141.302 18.48C140.475 18.08 139.622 17.88 138.742 17.88C137.888 17.88 137.128 18.08 136.462 18.48C135.822 18.88 135.315 19.4267 134.942 20.12C134.595 20.8133 134.422 21.6 134.422 22.48Z" fill="#5269DB"/>
<path d="M113.337 19.76L117.817 10.4L118.457 14.16C117.444 14.16 116.524 13.92 115.697 13.44C114.87 12.96 114.217 12.32 113.737 11.52C113.257 10.6933 113.017 9.78665 113.017 8.79998C113.017 7.81332 113.257 6.91998 113.737 6.11998C114.217 5.31998 114.87 4.67998 115.697 4.19998C116.524 3.71998 117.444 3.47998 118.457 3.47998C119.47 3.47998 120.377 3.71998 121.177 4.19998C122.004 4.67998 122.657 5.33331 123.137 6.15998C123.617 6.95998 123.857 7.86665 123.857 8.87998C123.857 9.78665 123.617 10.7733 123.137 11.84C122.684 12.9066 121.897 14.2266 120.777 15.8L117.977 19.76H113.337Z" fill="#F0D17C"/>
<path d="M79.6047 10.96H89.7647L91.3647 20.76V33.96H81.2047V19.2L79.6047 10.96ZM99.3247 10.24C101.565 10.24 103.471 10.6933 105.045 11.6C106.618 12.48 107.818 13.7333 108.645 15.36C109.498 16.96 109.925 18.84 109.925 21V33.96H99.7647V22.44C99.7647 21.16 99.4047 20.1733 98.6847 19.48C97.9914 18.7867 97.0047 18.44 95.7247 18.44C94.8181 18.44 94.0314 18.6267 93.3647 19C92.7247 19.3467 92.2314 19.8667 91.8847 20.56C91.5381 21.2267 91.3647 22.04 91.3647 23L88.3647 21.48C88.7381 18.9733 89.4581 16.8933 90.5247 15.24C91.5914 13.56 92.8847 12.3067 94.4047 11.48C95.9247 10.6533 97.5647 10.24 99.3247 10.24Z" fill="#5269DB"/>
<path d="M66.7003 10.48L71.7803 11.52L76.8603 10.48V33.96H66.7003V10.48ZM71.7803 9.28C70.0737 9.28 68.7003 8.86667 67.6603 8.04C66.6203 7.21333 66.1003 6.08 66.1003 4.64C66.1003 3.2 66.6203 2.06667 67.6603 1.24C68.7003 0.413334 70.0737 0 71.7803 0C73.5137 0 74.887 0.413334 75.9003 1.24C76.9403 2.06667 77.4603 3.2 77.4603 4.64C77.4603 6.08 76.9403 7.21333 75.9003 8.04C74.887 8.86667 73.5137 9.28 71.7803 9.28Z" fill="#5269DB"/>
<path d="M48.5975 34.68C45.5575 34.68 42.8908 34.1733 40.5975 33.16C38.3308 32.1467 36.5575 30.72 35.2775 28.88C34.0241 27.04 33.3975 24.9067 33.3975 22.48C33.3975 20.0267 34.0241 17.88 35.2775 16.04C36.5575 14.2 38.3308 12.7733 40.5975 11.76C42.8908 10.7467 45.5575 10.24 48.5975 10.24C51.6375 10.24 54.2908 10.7467 56.5575 11.76C58.8508 12.7733 60.6241 14.2 61.8775 16.04C63.1575 17.88 63.7975 20.0267 63.7975 22.48C63.7975 24.9067 63.1575 27.04 61.8775 28.88C60.6241 30.72 58.8508 32.1467 56.5575 33.16C54.2908 34.1733 51.6375 34.68 48.5975 34.68ZM48.5975 27.28C49.6641 27.28 50.5575 27.0933 51.2775 26.72C52.0241 26.3467 52.5841 25.8 52.9575 25.08C53.3575 24.36 53.5575 23.4933 53.5575 22.48C53.5575 21.44 53.3575 20.56 52.9575 19.84C52.5841 19.12 52.0241 18.5733 51.2775 18.2C50.5575 17.8267 49.6641 17.64 48.5975 17.64C47.5575 17.64 46.6641 17.8267 45.9175 18.2C45.1708 18.5733 44.5975 19.12 44.1975 19.84C43.8241 20.56 43.6375 21.44 43.6375 22.48C43.6375 23.4933 43.8241 24.36 44.1975 25.08C44.5975 25.8 45.1708 26.3467 45.9175 26.72C46.6641 27.0933 47.5575 27.28 48.5975 27.28Z" fill="#5269DB"/>
<path d="M20.4 28.08V24.28L20.72 23.16V16.72L20.4 15.88V10.96H30.56V27.84C30.56 30.5867 29.88 32.96 28.52 34.96C27.16 36.9867 25.24 38.5467 22.76 39.64C20.28 40.7333 17.3333 41.28 13.92 41.28C11.7333 41.28 9.70667 41 7.84 40.44C6 39.88 4.13333 39.0667 2.24 38V30.6C3.89333 31.8 5.65333 32.6933 7.52 33.28C9.41333 33.84 11.3333 34.12 13.28 34.12C15.5733 34.12 17.3333 33.68 18.56 32.8C19.7867 31.92 20.4 30.3467 20.4 28.08ZM11.32 31.12C9.13333 31.12 7.18667 30.6933 5.48 29.84C3.77333 28.96 2.42667 27.7333 1.44 26.16C0.48 24.5867 0 22.76 0 20.68C0 18.5733 0.48 16.7467 1.44 15.2C2.42667 13.6267 3.77333 12.4133 5.48 11.56C7.18667 10.68 9.13333 10.24 11.32 10.24C12.9733 10.24 14.4667 10.4933 15.8 11C17.16 11.5067 18.3467 12.1733 19.36 13C20.4 13.8267 21.2667 14.72 21.96 15.68C22.6533 16.6133 23.1733 17.5333 23.52 18.44C23.8667 19.3467 24.04 20.1333 24.04 20.8C24.04 21.7333 23.76 22.7867 23.2 23.96C22.6667 25.1333 21.8667 26.2667 20.8 27.36C19.7333 28.4533 18.4 29.36 16.8 30.08C15.2267 30.7733 13.4 31.12 11.32 31.12ZM14.88 24.4C16.2133 24.4 17.3733 24.08 18.36 23.44C19.3467 22.8 20.1333 21.88 20.72 20.68C20.1067 19.4533 19.3067 18.5333 18.32 17.92C17.3333 17.28 16.1867 16.96 14.88 16.96C13.9467 16.96 13.12 17.1067 12.4 17.4C11.7067 17.6667 11.16 18.08 10.76 18.64C10.3867 19.2 10.2 19.88 10.2 20.68C10.2 21.4533 10.3867 22.12 10.76 22.68C11.1333 23.24 11.6667 23.6667 12.36 23.96C13.08 24.2533 13.92 24.4 14.88 24.4Z" fill="#5269DB"/>
</svg>
