<svg width="45" height="38" viewBox="0 0 45 38" fill="none" xmlns="http://www.w3.org/2000/svg">
<path d="M34.3371 16.28L38.8171 6.92L39.4571 10.68C38.4438 10.68 37.5238 10.44 36.6971 9.96C35.8704 9.48 35.2171 8.84 34.7371 8.04C34.2571 7.21333 34.0171 6.30667 34.0171 5.32C34.0171 4.33333 34.2571 3.44 34.7371 2.64C35.2171 1.84 35.8704 1.2 36.6971 0.720001C37.5238 0.240001 38.4438 0 39.4571 0C40.4704 0 41.3771 0.240001 42.1771 0.720001C43.0038 1.2 43.6571 1.85333 44.1371 2.68C44.6171 3.48 44.8571 4.38667 44.8571 5.4C44.8571 6.30667 44.6171 7.29333 44.1371 8.36C43.6838 9.42667 42.8971 10.7467 41.7771 12.32L38.9771 16.28H34.3371Z" fill="#F0D17C"/>
<path d="M20.4 24.36V20.56L20.72 19.44V13L20.4 12.16V7.24002H30.56V24.12C30.56 26.8667 29.88 29.24 28.52 31.24C27.16 33.2667 25.24 34.8267 22.76 35.92C20.28 37.0134 17.3333 37.56 13.92 37.56C11.7333 37.56 9.70667 37.28 7.84 36.72C6 36.16 4.13333 35.3467 2.24 34.28V26.88C3.89333 28.08 5.65333 28.9734 7.52 29.56C9.41333 30.12 11.3333 30.4 13.28 30.4C15.5733 30.4 17.3333 29.96 18.56 29.08C19.7867 28.2 20.4 26.6267 20.4 24.36ZM11.32 27.4C9.13333 27.4 7.18667 26.9734 5.48 26.12C3.77333 25.24 2.42667 24.0134 1.44 22.44C0.48 20.8667 0 19.04 0 16.96C0 14.8534 0.48 13.0267 1.44 11.48C2.42667 9.90669 3.77333 8.69335 5.48 7.84002C7.18667 6.96002 9.13333 6.52002 11.32 6.52002C12.9733 6.52002 14.4667 6.77335 15.8 7.28002C17.16 7.78669 18.3467 8.45335 19.36 9.28002C20.4 10.1067 21.2667 11 21.96 11.96C22.6533 12.8934 23.1733 13.8134 23.52 14.72C23.8667 15.6267 24.04 16.4134 24.04 17.08C24.04 18.0134 23.76 19.0667 23.2 20.24C22.6667 21.4134 21.8667 22.5467 20.8 23.64C19.7333 24.7334 18.4 25.64 16.8 26.36C15.2267 27.0534 13.4 27.4 11.32 27.4ZM14.88 20.68C16.2133 20.68 17.3733 20.36 18.36 19.72C19.3467 19.08 20.1333 18.16 20.72 16.96C20.1067 15.7334 19.3067 14.8134 18.32 14.2C17.3333 13.56 16.1867 13.24 14.88 13.24C13.9467 13.24 13.12 13.3867 12.4 13.68C11.7067 13.9467 11.16 14.36 10.76 14.92C10.3867 15.48 10.2 16.16 10.2 16.96C10.2 17.7334 10.3867 18.4 10.76 18.96C11.1333 19.52 11.6667 19.9467 12.36 20.24C13.08 20.5334 13.92 20.68 14.88 20.68Z" fill="#5269DB"/>
</svg>
